<?xml version="1.0" encoding="UTF-8" standalone="no"?> <svg width="512" height="512" viewBox="0 0 512 512" fill="none" xmlns="http://www.w3.org/2000/svg">
<path d="M256 480C379.712 480 480 379.712 480 256C480 132.288 379.712 32 256 32C132.288 32 32 132.288 32 256C32 379.712 132.288 480 256 480Z" fill="#3498DB"/>
<path d="M245.19 126.208V126.592C245.191 130.221 244.18 133.778 242.271 136.864C240.363 139.95 237.632 142.444 234.385 144.064L182.278 170.123C181.553 170.484 180.852 170.891 180.178 171.339L153.51 189.12C150.681 191.009 148.391 193.6 146.865 196.64L142.9 204.6C141.539 207.311 140.831 210.303 140.831 213.336C140.831 216.369 141.539 219.361 142.9 222.072C144.732 225.742 145.363 229.895 144.705 233.944C144.046 237.993 142.131 241.732 139.231 244.632L138.644 245.219C135.564 248.3 131.542 250.262 127.218 250.793C122.895 251.325 118.517 250.395 114.783 248.152L80.721 227.723C76.7209 225.322 73.7127 221.569 72.241 217.142L63.857 192C53.83 192 47.814 187.531 44.252 182.784V182.773C62.1805 131.108 98.341 87.7582 145.952 60.853L177.099 82.485C179.786 84.3525 181.961 86.865 183.425 89.792L186.465 95.861C188.085 99.1079 190.579 101.839 193.665 103.747C196.751 105.656 200.308 106.667 203.937 106.666H225.654C228.22 106.666 230.761 107.172 233.131 108.154C235.502 109.136 237.655 110.576 239.47 112.391C241.284 114.205 242.723 116.36 243.704 118.73C244.686 121.101 245.19 123.642 245.19 126.208V126.208Z" fill="#2ECC71"/>
<path d="M277.19 317.483V328.523C277.192 329.94 276.965 331.349 276.518 332.694L267.5 359.712C266.857 361.654 265.768 363.418 264.321 364.864L248.012 381.173C246.168 383.013 244.913 385.359 244.407 387.914L235.788 431.007C235.393 432.976 234.553 434.829 233.333 436.424C232.113 438.019 230.545 439.315 228.748 440.212L221.687 443.753C219.211 444.989 216.409 445.416 213.677 444.971C210.945 444.527 208.423 443.235 206.466 441.278L193.366 428.178C192.366 427.174 191.531 426.018 190.891 424.754L182.571 408.114C181.661 406.28 181.186 404.261 181.184 402.214V360.149C181.182 357.7 180.5 355.3 179.214 353.216C177.928 351.133 176.087 349.448 173.899 348.349L162.993 342.9C160.937 341.877 159.187 340.332 157.916 338.42L140.743 312.649C139.295 310.487 138.522 307.944 138.524 305.342V296.147C138.526 293.698 139.208 291.298 140.494 289.214C141.78 287.131 143.62 285.446 145.809 284.347L155.921 279.291C158.48 278.023 160.553 275.95 161.821 273.391L166.877 263.279C167.976 261.091 169.661 259.25 171.744 257.964C173.828 256.678 176.228 255.996 178.677 255.994H197.066C198.797 255.993 200.512 256.334 202.112 256.997C203.711 257.659 205.165 258.63 206.389 259.855L209.333 262.799C210.557 264.024 212.01 264.995 213.61 265.657C215.21 266.32 216.924 266.661 218.656 266.66H221.344C223.075 266.66 224.79 267.001 226.389 267.663C227.989 268.326 229.442 269.297 230.667 270.521C231.891 271.745 232.862 273.199 233.525 274.799C234.187 276.398 234.528 278.113 234.528 279.844C234.53 282.293 235.212 284.693 236.498 286.777C237.784 288.86 239.624 290.545 241.813 291.644L269.913 305.681C272.1 306.781 273.939 308.467 275.224 310.551C276.509 312.635 277.189 315.035 277.19 317.483V317.483Z" fill="#2ECC71"/>
<path d="M480 256C480.071 314.577 457.122 370.836 416.1 412.651L406.287 388.351C405.56 386.174 405.189 383.894 405.187 381.599V358.1C405.188 354.79 404.418 351.524 402.936 348.564L386.108 314.9C384.626 311.94 383.855 308.674 383.857 305.364V302.249C383.857 298.613 382.928 295.037 381.158 291.861C379.387 288.685 376.835 286.015 373.742 284.103C370.649 282.191 367.119 281.101 363.487 280.937C359.854 280.773 356.24 281.54 352.988 283.166L345.688 286.814C342.728 288.296 339.462 289.066 336.152 289.065H335.235C330.756 289.065 326.39 287.656 322.757 285.037C319.123 282.418 316.406 278.722 314.99 274.473L310.29 260.35C309.563 258.173 309.192 255.893 309.19 253.598V236.48C309.19 232.968 310.057 229.511 311.714 226.414C313.372 223.318 315.768 220.679 318.69 218.731L338.114 205.782C340.148 204.428 342.4 203.432 344.77 202.838L377.826 194.571C381.764 193.59 385.9 193.749 389.751 195.03L412.567 202.635C414.744 203.362 417.024 203.733 419.319 203.735H473.858C477.947 220.856 480.009 238.398 480 256V256Z" fill="#2ECC71"/>
<path d="M458.428 160H426.566C421.766 160 417.162 158.093 413.766 154.7L411.566 152.5C408.17 149.107 403.567 147.2 398.766 147.2H384.945C382.131 147.198 379.355 147.852 376.838 149.109L358.9 158.091C356.381 159.348 353.605 160.001 350.79 160H347.569C343.989 160.001 340.489 158.939 337.512 156.95C334.535 154.962 332.214 152.135 330.844 148.827C329.474 145.519 329.116 141.88 329.814 138.368C330.513 134.857 332.237 131.631 334.769 129.1L353 110.869C354.374 109.496 355.958 108.351 357.693 107.477L376.84 97.909C379.357 96.652 382.132 95.9984 384.945 96H412.753C431.627 114.478 447.089 136.144 458.428 160V160Z" fill="#2ECC71"/>
<path opacity="0.25" d="M298.667 426.666C180.846 426.666 85.334 331.153 85.334 213.333C85.3005 183.848 91.3961 154.678 103.234 127.674C115.072 100.67 132.394 76.4208 154.1 56.466C117.337 75.2438 86.4791 103.816 64.9324 139.027C43.3857 174.238 31.9888 214.719 32 256C32 379.712 132.288 480 256 480C297.281 480.011 337.762 468.614 372.973 447.068C408.184 425.521 436.756 394.663 455.534 357.9C435.579 379.606 411.33 396.928 384.326 408.766C357.322 420.604 328.152 426.699 298.667 426.666V426.666Z" fill="#083C59"/>
<path d="M421.934 90.066C400.16 68.1989 374.287 50.841 345.796 38.9862C317.305 27.1314 286.755 21.0123 255.896 20.9794C225.037 20.9464 194.475 27.0003 165.958 38.7942C137.442 50.5882 111.532 67.8908 89.7114 89.7114C67.8907 111.532 50.5881 137.442 38.794 165.958C27 194.475 20.946 225.037 20.9789 255.896C21.0117 286.755 27.1307 317.304 38.9854 345.796C50.8402 374.287 68.1979 400.16 90.065 421.934C111.839 443.801 137.712 461.159 166.203 473.014C194.694 484.869 225.244 490.988 256.103 491.021C286.962 491.054 317.524 485 346.04 473.206C374.557 461.412 400.467 444.109 422.288 422.289C444.108 400.468 461.411 374.558 473.205 346.042C484.999 317.525 491.053 286.963 491.02 256.104C490.987 225.245 484.868 194.695 473.014 166.204C461.159 137.713 443.801 111.84 421.934 90.066V90.066ZM440.7 149.333H426.566C424.595 149.328 422.706 148.545 421.309 147.155L419.109 144.955C413.701 139.579 406.392 136.552 398.767 136.53H384.944C380.473 136.534 376.064 137.573 372.063 139.567L354.14 148.539C353.1 149.06 351.953 149.33 350.79 149.329H347.569C345.598 149.327 343.708 148.543 342.314 147.149C340.92 145.755 340.136 143.865 340.134 141.894C340.134 140.918 340.326 139.951 340.7 139.049C341.074 138.147 341.621 137.327 342.312 136.637L360.542 118.406C361.103 117.843 361.75 117.373 362.459 117.014L381.608 107.445C382.645 106.93 383.786 106.662 384.944 106.662H408.19C420.768 119.47 431.69 133.806 440.7 149.333V149.333ZM145.534 73.553L171.009 91.246C172.23 92.0961 173.218 93.2385 173.883 94.569L176.916 100.624C179.406 105.656 183.258 109.89 188.034 112.843C192.809 115.797 198.317 117.352 203.932 117.332H225.649C228.002 117.335 230.257 118.27 231.921 119.934C233.585 121.598 234.521 123.853 234.524 126.206V126.59C234.529 128.239 234.072 129.856 233.205 131.258C232.337 132.661 231.093 133.791 229.615 134.522L177.509 160.58C176.388 161.14 175.303 161.768 174.26 162.462L147.586 180.248C143.215 183.17 139.678 187.177 137.321 191.877L133.356 199.825C131.256 204.017 130.162 208.64 130.162 213.328C130.162 218.017 131.256 222.64 133.356 226.832C134.19 228.5 134.478 230.389 134.177 232.23C133.877 234.071 133.005 235.771 131.684 237.088L131.102 237.671C129.705 239.073 127.878 239.966 125.914 240.207C123.949 240.448 121.96 240.023 120.266 239L86.208 218.577C84.3918 217.485 83.0268 215.779 82.36 213.767L73.976 188.626C73.2679 186.502 71.9096 184.655 70.0935 183.347C68.2773 182.038 66.0955 181.334 63.857 181.334C61.3972 181.41 58.9565 180.88 56.75 179.79C73.7924 135.54 105.013 98.1818 145.534 73.553V73.553ZM42.666 256C42.6581 237.153 45.1532 218.389 50.086 200.2C51.9754 200.941 53.9266 201.514 55.917 201.912L62.117 220.512C64.394 227.358 69.0462 233.163 75.232 236.877L109.281 257.297C115.053 260.776 121.825 262.22 128.514 261.398C135.203 260.576 141.423 257.535 146.181 252.762L146.764 252.179C151.252 247.698 154.215 241.918 155.233 235.658C156.25 229.398 155.27 222.977 152.431 217.306C151.81 216.074 151.487 214.714 151.488 213.335C151.489 211.956 151.814 210.596 152.436 209.365L156.393 201.43C157.089 200.045 158.133 198.863 159.421 198.001L186.087 180.22C186.394 180.017 186.713 179.833 187.042 179.669L239.142 153.614C244.174 151.123 248.407 147.271 251.36 142.496C254.313 137.721 255.868 132.213 255.849 126.598V126.214C255.842 118.205 252.658 110.527 246.996 104.863C241.335 99.1984 233.658 96.0111 225.649 96H203.932C202.282 96.0045 200.665 95.5462 199.262 94.6772C197.86 93.8082 196.73 92.5633 196 91.084L192.964 85.022C190.699 80.4973 187.336 76.6124 183.183 73.722L166.7 62.282C201.615 46.1608 240.243 39.7943 278.484 43.8582C316.726 47.9222 353.153 62.2649 383.9 85.364C379.789 85.5115 375.756 86.5342 372.072 88.364L352.9 97.949C350.149 99.333 347.637 101.149 345.46 103.327L327.232 121.555C324.559 124.226 322.439 127.398 320.992 130.889C319.545 134.38 318.801 138.121 318.8 141.9C318.808 149.527 321.842 156.84 327.236 162.233C332.629 167.626 339.942 170.66 347.569 170.668H350.79C355.26 170.661 359.668 169.622 363.671 167.631L381.607 158.652C382.644 158.137 383.785 157.869 384.943 157.869H398.768C400.739 157.875 402.628 158.657 404.025 160.047L406.225 162.247C411.632 167.624 418.942 170.652 426.568 170.674H451.5C454.704 177.977 457.493 185.456 459.854 193.074H419.324C418.175 193.073 417.034 192.887 415.945 192.523L393.12 184.914C387.347 182.992 381.146 182.755 375.243 184.23L342.167 192.502C338.617 193.39 335.246 194.882 332.202 196.913L312.782 209.86C308.392 212.777 304.793 216.734 302.305 221.381C299.817 226.027 298.518 231.217 298.524 236.487V253.6C298.524 257.041 299.079 260.459 300.17 263.723L304.87 277.844C306.987 284.222 311.061 289.77 316.513 293.7C321.964 297.63 328.516 299.741 335.236 299.734H336.154C341.119 299.732 346.017 298.575 350.459 296.357L357.759 292.709C359.385 291.897 361.192 291.514 363.008 291.596C364.824 291.678 366.589 292.223 368.135 293.179C369.681 294.135 370.957 295.471 371.842 297.059C372.727 298.646 373.192 300.434 373.192 302.252V305.367C373.194 310.333 374.35 315.23 376.569 319.672L393.409 353.353C394.144 354.828 394.527 356.454 394.526 358.102V381.602C394.526 385.045 395.082 388.465 396.173 391.73C396.24 391.938 396.316 392.144 396.401 392.349L403.517 409.968C363.875 448.094 311 469.372 256 469.333C138.367 469.333 42.666 373.632 42.666 256ZM419.58 392.777L416.325 384.716C416.015 383.706 415.857 382.656 415.857 381.6V358.1C415.854 353.136 414.698 348.241 412.48 343.8L395.64 310.119C394.905 308.644 394.522 307.018 394.523 305.37V302.255C394.543 296.307 392.895 290.473 389.768 285.414C386.64 280.354 382.158 276.273 376.829 273.631C372.387 271.411 367.489 270.255 362.522 270.255C357.556 270.255 352.658 271.411 348.216 273.631L340.904 277.287C339.429 278.022 337.803 278.405 336.155 278.404H335.237C332.996 278.407 330.811 277.703 328.993 276.392C327.176 275.081 325.817 273.231 325.112 271.104L320.407 256.976C320.042 255.888 319.856 254.748 319.856 253.6V236.48C319.854 234.723 320.288 232.994 321.117 231.445C321.947 229.897 323.147 228.578 324.61 227.606L344.046 214.649C345.059 213.975 346.18 213.481 347.361 213.186L380.409 204.921C382.381 204.428 384.453 204.507 386.382 205.149L409.199 212.755C412.463 213.844 415.882 214.4 419.323 214.4H465.248C471.457 245.655 470.577 277.905 462.674 308.775C454.771 339.646 440.045 368.351 419.58 392.777V392.777Z" fill="black"/>
<path d="M274.673 296.149L246.582 282.1C246.162 281.893 245.81 281.572 245.563 281.173C245.317 280.775 245.188 280.316 245.19 279.848C245.182 273.525 242.666 267.464 238.195 262.993C233.724 258.522 227.662 256.007 221.339 256H218.652C217.985 255.998 217.345 255.733 216.872 255.262L213.928 252.318C211.718 250.097 209.09 248.335 206.195 247.136C203.3 245.938 200.195 245.325 197.062 245.333H178.672C174.24 245.318 169.891 246.545 166.121 248.876C162.35 251.206 159.308 254.546 157.339 258.517L152.282 268.632C152.038 269.119 151.643 269.514 151.156 269.758V269.758L141.044 274.815C137.073 276.784 133.732 279.826 131.402 283.597C129.071 287.367 127.844 291.715 127.859 296.148V305.341C127.855 310.05 129.249 314.655 131.865 318.571L149.041 344.336C151.345 347.788 154.508 350.579 158.219 352.436L169.134 357.893C169.554 358.1 169.907 358.422 170.153 358.82C170.399 359.218 170.528 359.677 170.526 360.145V402.217C170.531 405.919 171.393 409.57 173.044 412.884L181.364 429.523C182.509 431.817 184.017 433.91 185.83 435.723L198.93 448.823C202.467 452.367 207.032 454.706 211.974 455.508C216.917 456.31 221.986 455.535 226.463 453.291L233.526 449.759C236.782 448.144 239.624 445.802 241.83 442.913C244.036 440.024 245.547 436.667 246.248 433.1L254.867 390C254.965 389.513 255.205 389.065 255.557 388.714L271.866 372.405C274.481 369.783 276.453 366.592 277.628 363.081L286.628 336.07C287.441 333.637 287.855 331.088 287.854 328.522V317.482C287.869 313.05 286.642 308.702 284.313 304.931C281.983 301.161 278.644 298.118 274.673 296.149V296.149ZM266.524 328.527C266.525 328.799 266.481 329.069 266.394 329.327L257.389 356.345C257.265 356.715 257.057 357.052 256.781 357.328L240.472 373.637C237.139 376.964 234.868 381.207 233.949 385.826L225.33 428.926C225.256 429.302 225.096 429.657 224.863 429.961C224.63 430.266 224.33 430.513 223.986 430.683L216.92 434.216C216.448 434.454 215.912 434.536 215.391 434.451C214.869 434.366 214.387 434.119 214.014 433.744L200.914 420.644C200.723 420.453 200.563 420.233 200.442 419.991L192.126 403.36C191.951 403.009 191.859 402.622 191.858 402.229V360.149C191.873 355.717 190.646 351.368 188.316 347.598C185.985 343.827 182.645 340.785 178.674 338.816L167.759 333.359C167.367 333.163 167.034 332.868 166.79 332.504L149.614 306.739C149.337 306.325 149.19 305.837 149.191 305.339V296.146C149.189 295.678 149.319 295.219 149.565 294.82C149.811 294.422 150.164 294.101 150.584 293.894L160.7 288.84C165.31 286.523 169.051 282.783 171.368 278.173L176.425 268.058C176.632 267.638 176.954 267.286 177.352 267.039C177.75 266.793 178.209 266.664 178.677 266.666H197.067C197.734 266.668 198.374 266.933 198.847 267.404L201.791 270.348C204.001 272.569 206.629 274.331 209.525 275.53C212.42 276.729 215.524 277.342 218.657 277.333H221.345C222.013 277.334 222.653 277.599 223.125 278.071C223.597 278.543 223.862 279.183 223.863 279.851C223.848 284.284 225.075 288.632 227.406 292.402C229.736 296.173 233.076 299.215 237.047 301.184L265.138 315.23C265.558 315.437 265.911 315.759 266.157 316.157C266.403 316.555 266.532 317.014 266.53 317.482L266.524 328.527Z" fill="black"/>
</svg>
